<?xml version="1.0" encoding="UTF-8"?>
<svg version="1.1" xmlns="http://www.w3.org/2000/svg" width="1920" height="1080">
<path d="M0 0 C176.5432526 0 176.5432526 0 206.6953125 28.5703125 C223.19530098 45.96521561 230.17536349 66.71186173 230.24023438 90.30053711 C230.24983159 92.40064803 230.28085225 94.49973197 230.3125 96.59960938 C230.49864482 120.2976924 222.69103626 142.74107345 206 160 C196.98468369 168.20818297 186.8959707 174.58089345 176 180 C182.52469903 192.69144178 189.04667394 205.37739679 195.9375 217.875 C200.60450899 226.34318568 205.08100719 234.90084115 209.5 243.5 C213.94031433 252.1404676 218.4398375 260.73877794 223.125 269.25 C227.56780235 277.33953943 231.94686167 285.46019128 236.25 293.625 C237.11069092 295.23616699 237.11069092 295.23616699 237.98876953 296.87988281 C238.51325684 297.88116211 239.03774414 298.88244141 239.578125 299.9140625 C240.04637695 300.8004541 240.51462891 301.6868457 240.99707031 302.60009766 C242 305 242 305 242 309 C218.9 309 195.8 309 172 309 C169.23625 303.451875 166.4725 297.90375 163.625 292.1875 C158.3457633 281.60970083 153.05456655 271.04759861 147.48681641 260.61791992 C143.67546395 253.45503625 140.08037726 246.18731959 136.47045898 238.92138672 C133.28706074 232.5299406 130.03163944 226.18376093 126.6875 219.875 C123.70771381 214.25013522 120.74548243 208.61911139 117.875 202.9375 C117.31554687 201.83277344 116.75609375 200.72804688 116.1796875 199.58984375 C115 197 115 197 115 195 C98.5 195 82 195 65 195 C65 232.62 65 270.24 65 309 C43.55 309 22.1 309 0 309 C0 207.03 0 105.06 0 0 Z M65 50 C65 81.35 65 112.7 65 145 C73.25 145.04125 81.5 145.0825 90 145.125 C92.56910156 145.14320801 95.13820313 145.16141602 97.78515625 145.18017578 C128.25278024 145.70133721 128.25278024 145.70133721 153.90625 131.1171875 C163.70845436 120.52582262 166.61986791 107.92285578 166.28515625 93.67578125 C165.30350997 81.02195723 160.6796895 68.55500177 151 60 C134.0603628 47.74217207 113.31069601 49.50416114 93.5 49.75 C79.3925 49.87375 79.3925 49.87375 65 50 Z " fill="#FFFFFF" transform="translate(41,404)"/>
<path d="M0 0 C157.88080046 0 157.88080046 0 197.875 39.375 C204.4511236 46.03801021 209.93513014 53.14295829 215 61 C215.62132812 61.93714844 216.24265625 62.87429688 216.8828125 63.83984375 C241.35519855 102.96273894 243.51727808 158.47332939 233.75 202.4375 C225.4398913 237.4732144 205.52843411 269.21559545 174.80078125 288.6875 C122.85888993 320.66787215 57.40285177 309 0 309 C0 207.03 0 105.06 0 0 Z M65 50 C65 118.97 65 187.94 65 259 C110.84087206 260.5948986 110.84087206 260.5948986 147.75 239.75 C168.73896904 217.77577353 172.37820066 186.95681817 172.31567383 157.88647461 C172.31252298 154.83475664 172.3360271 151.78402026 172.36132812 148.73242188 C172.45494729 119.84814015 167.84310708 91.18134011 147.5 69.3125 C146.675 68.549375 145.85 67.78625 145 67 C144.55914063 66.54238281 144.11828125 66.08476562 143.6640625 65.61328125 C123.53460422 46.14799291 89.35628021 50 65 50 Z " fill="#FFFFFF" transform="translate(854,404)"/>
<path d="M0 0 C1.62215675 0.00333092 1.62215675 0.00333092 3.27708435 0.00672913 C4.49827469 0.00680466 5.71946503 0.00688019 6.97766113 0.00695801 C8.32022644 0.0120654 9.66279134 0.01728141 11.00535583 0.02259827 C12.37156116 0.02446252 13.73776716 0.02588639 15.10397339 0.02688599 C18.70596654 0.03071058 22.30791959 0.04054035 25.90989685 0.05158997 C29.58298703 0.06180536 33.25608368 0.06638388 36.92918396 0.07142639 C44.14079081 0.08216268 51.35236459 0.09923838 58.56394958 0.12025452 C59.0025808 1.30246582 59.0025808 1.30246582 59.45007324 2.50856018 C75.66829972 46.27333023 75.66829972 46.27333023 92.00144958 89.99525452 C92.27428772 90.72186279 92.54712585 91.44847107 92.82823181 92.19709778 C94.33347552 96.20496389 95.839671 100.21247179 97.34617615 104.21986389 C102.36079852 117.55995932 107.36973133 130.90219084 112.37644958 144.24525452 C112.66506489 145.01436913 112.95368019 145.78348373 113.25104141 146.57590485 C122.73724661 171.85645022 132.16617338 197.15783331 141.55378723 222.47514343 C147.29796075 237.96647595 153.05306649 253.45340902 158.86082458 268.92103577 C159.11133701 269.5883157 159.36184944 270.25559563 159.61995316 270.94309616 C162.21640557 277.85842132 164.81660066 284.77232669 167.42088318 291.68470764 C168.04812286 293.35221321 168.04812286 293.35221321 168.68803406 295.05340576 C169.46589582 297.12132381 170.24508021 299.18874498 171.02580261 301.25558472 C171.363396 302.15363327 171.70098938 303.05168182 172.04881287 303.97694397 C172.34345428 304.758423 172.6380957 305.53990204 172.94166565 306.34506226 C173.56394958 308.12025452 173.56394958 308.12025452 173.56394958 309.12025452 C150.79394958 309.12025452 128.02394958 309.12025452 104.56394958 309.12025452 C100.06238901 297.86635307 100.06238901 297.86635307 98.54930115 293.25917053 C98.20925049 292.22852982 97.86919983 291.1978891 97.5188446 290.13601685 C97.1676355 289.05960434 96.81642639 287.98319183 96.45457458 286.87416077 C96.08290161 285.74123093 95.71122864 284.60830109 95.32829285 283.44104004 C94.55020738 281.06585496 93.77380206 278.69011888 92.99900818 276.31385803 C91.80892116 272.66734708 90.61055627 269.02362513 89.41160583 265.38002014 C88.65459582 263.06573038 87.89806806 260.7512828 87.14207458 258.43666077 C86.78276855 257.34607864 86.42346252 256.25549652 86.05326843 255.13186646 C85.72582642 254.12329086 85.3983844 253.11471527 85.0610199 252.07557678 C84.77108154 251.18862625 84.48114319 250.30167572 84.18241882 249.3878479 C83.56394958 247.12025452 83.56394958 247.12025452 83.56394958 244.12025452 C46.93394958 244.12025452 10.30394958 244.12025452 -27.43605042 244.12025452 C-28.42605042 248.08025452 -29.41605042 252.04025452 -30.43605042 256.12025452 C-31.0339049 258.13365258 -31.65464184 260.14078816 -32.32130432 262.13246155 C-32.82665207 263.65300644 -32.82665207 263.65300644 -33.34220886 265.20426941 C-33.87205887 266.77529922 -33.87205887 266.77529922 -34.41261292 268.37806702 C-34.78332916 269.48834259 -35.15404541 270.59861816 -35.53599548 271.74253845 C-36.31208547 274.06414003 -37.09031722 276.38502667 -37.87062073 278.70521545 C-39.06905935 282.26907109 -40.26091134 285.83507812 -41.45167542 289.40150452 C-42.20911084 291.66465158 -42.96691006 293.92767694 -43.72511292 296.19056702 C-44.08239471 297.25816254 -44.43967651 298.32575806 -44.80778503 299.42570496 C-45.13837921 300.40787994 -45.46897339 301.39005493 -45.80958557 302.4019928 C-46.10031952 303.26736664 -46.39105347 304.13274048 -46.69059753 305.02433777 C-47.43605042 307.12025452 -47.43605042 307.12025452 -48.43605042 309.12025452 C-71.20605042 309.12025452 -93.97605042 309.12025452 -117.43605042 309.12025452 C-113.25055189 297.16168729 -109.05492384 285.23292793 -104.62745667 273.36634827 C-104.0980997 271.94310101 -103.56891468 270.51978978 -103.03988647 269.09642029 C-101.64804581 265.35301932 -100.25390698 261.6104785 -98.85926056 257.8681221 C-97.39923206 253.94902979 -95.94144011 250.02910568 -94.4834137 246.10926819 C-91.90423059 239.176128 -89.32333604 232.24362667 -86.74155426 225.31145382 C-84.40496469 219.03740863 -82.07046677 212.76258673 -79.73683167 206.48744202 C-76.88557362 198.8209701 -74.03297386 191.15499911 -71.17926025 183.48944092 C-67.9338626 174.7716546 -64.6899838 166.05330329 -61.44612122 157.33494568 C-59.77615193 152.84669508 -58.10609711 148.35847631 -56.43605042 143.87025452 C-55.76938333 142.078588 -55.10271667 140.28692134 -54.43605042 138.49525452 C-53.10271708 134.91192118 -51.76938375 131.32858785 -50.43605042 127.74525452 C-50.10604538 126.85836441 -49.77604034 125.9714743 -49.43603516 125.05770874 C-48.76942351 123.26619312 -48.1028077 121.47467904 -47.43618774 119.6831665 C-45.7686452 115.20170158 -44.10117506 110.72020974 -42.43385315 106.23866272 C-39.44446133 98.20377503 -36.45460344 90.16906276 -33.46194458 82.13539124 C-32.1373827 78.57956204 -30.81317775 75.02359999 -29.48905945 71.46760559 C-28.83234002 69.70409226 -28.17550134 67.94062333 -27.51853943 66.17720032 C-23.55394255 55.53418459 -19.60853397 44.8843366 -15.68605042 34.22572327 C-14.89561665 32.0796413 -14.10517081 29.93356378 -13.31471252 27.78749084 C-11.79156061 23.65175211 -10.2721309 19.51467014 -8.75465393 15.37684631 C-8.06654946 13.50741445 -7.3783236 11.63802725 -6.68995667 9.76869202 C-6.21616577 8.47205879 -6.21616577 8.47205879 -5.73280334 7.14923096 C-3.15170545 0.1555825 -3.15170545 0.1555825 0 0 Z M27.56394958 77.12025452 C19.53313581 100.34762772 11.70127994 123.6353941 4.06394958 146.99525452 C3.68385742 148.1569516 3.30376526 149.31864868 2.91215515 150.51554871 C-0.74792989 161.70881575 -4.39078384 172.90777903 -7.96730042 184.12806702 C-8.22088318 184.91728546 -8.47446594 185.70650391 -8.73573303 186.51963806 C-9.99158186 190.24636038 -9.99158186 190.24636038 -10.43605042 194.12025452 C14.97394958 194.12025452 40.38394958 194.12025452 66.56394958 194.12025452 C64.24685818 185.5136821 64.24685818 185.5136821 61.60960388 177.04603577 C61.25412979 175.98296707 60.8986557 174.91989838 60.53240967 173.82461548 C60.15481003 172.70530136 59.77721039 171.58598724 59.38816833 170.43275452 C58.77176311 168.59185768 58.1553608 166.75095986 57.53908443 164.91001987 C56.88967685 162.97182385 56.2388491 161.03411032 55.58757019 159.09654236 C53.32961685 152.37878901 51.08092442 145.65793625 48.83348083 138.93666077 C48.49643127 137.92912341 48.49643127 137.92912341 48.15257263 136.90123177 C45.12617889 127.85109488 42.1373829 118.78982806 39.20066833 109.71009827 C38.87396652 108.70049042 38.54726471 107.69088257 38.21066284 106.65068054 C36.70097243 101.97942301 35.19830936 97.30601292 33.70335388 92.63002014 C33.17519858 90.99001925 32.64696478 89.35004363 32.11863708 87.71009827 C31.88621811 86.97548874 31.65379913 86.24087921 31.41433716 85.48400879 C30.39800051 82.33985405 29.41149524 79.891573 27.56394958 77.12025452 Z " fill="#FFFFFF" transform="translate(655.4360504150391,403.87974548339844)"/>
<path d="M0 0 C68.64 0 137.28 0 208 0 C208 16.5 208 33 208 50 C160.81 50 113.62 50 65 50 C65 75.08 65 100.16 65 126 C105.26 126 145.52 126 187 126 C187 142.17 187 158.34 187 175 C146.74 175 106.48 175 65 175 C65 202.72 65 230.44 65 259 C112.19 259 159.38 259 208 259 C208 275.5 208 292 208 309 C139.36 309 70.72 309 0 309 C0 207.03 0 105.06 0 0 Z " fill="#FFFFFF" transform="translate(323,404)"/>
<path d="M0 0 C20.46 0 40.92 0 62 0 C62.33 58.74 62.66 117.48 63 178 C67.29 172.72 71.58 167.44 76 162 C79.48955753 157.89887054 82.98051081 153.80324526 86.50292969 149.73095703 C89.0699656 146.76287408 91.63026717 143.78903125 94.1875 140.8125 C94.68813965 140.23000488 95.1887793 139.64750977 95.70458984 139.04736328 C98.75223118 135.48994197 101.73853504 131.89012863 104.6875 128.25 C108.2327839 123.88067714 111.94630352 119.70580662 115.734375 115.546875 C118.88846102 112.00124726 121.87649313 108.33056034 124.859375 104.640625 C125.56578125 103.76921875 126.2721875 102.8978125 127 102 C128.07316719 100.45437881 128.07316719 100.45437881 129.16801453 98.87753296 C131.36467311 96.26509655 131.88077491 96.02494492 135.44856262 95.2784729 C136.78312892 95.26121803 138.11837929 95.27673489 139.45239258 95.31884766 C140.55076447 95.31753342 140.55076447 95.31753342 141.67132568 95.31619263 C144.08016447 95.32035708 146.4861821 95.3669468 148.89453125 95.4140625 C150.56888813 95.4252589 152.24326472 95.433797 153.91764832 95.43978882 C158.31581284 95.46265269 162.71278062 95.52155335 167.11047363 95.5880127 C171.6014792 95.64948885 176.09267895 95.67681512 180.58398438 95.70703125 C189.38987095 95.77130035 198.19478643 95.87364844 207 96 C205.13968286 100.01839271 202.47266395 102.89210598 199.4375 106.0625 C195.63648927 110.09937297 191.96724897 114.16752927 188.5 118.5 C184.6794151 123.26188842 180.60932197 127.71435594 176.43920898 132.16625977 C173.34219916 135.491548 170.40378316 138.88719939 167.5625 142.4375 C163.53553256 147.45841948 159.20785297 152.12421817 154.79931641 156.80615234 C150.76428832 161.11482163 147.01639744 165.5888782 143.328125 170.19921875 C140.08371142 174.10231362 136.63743365 177.80290333 133.15991211 181.49829102 C130.28678165 184.55966603 127.57561318 187.68412745 125 191 C126.37542697 193.87033364 127.91870295 196.51723317 129.66699219 199.17578125 C130.20225525 199.99183838 130.73751831 200.80789551 131.28900146 201.64868164 C131.86909973 202.5277417 132.449198 203.40680176 133.046875 204.3125 C133.65452698 205.23603271 134.26217896 206.15956543 134.88824463 207.11108398 C136.18170455 209.07544239 137.47631233 211.03904538 138.77197266 213.00195312 C140.70457876 215.93115616 142.63184895 218.86381438 144.55859375 221.796875 C151.16942509 231.83756482 157.89336827 241.77888081 164.82247925 251.6026001 C171.34616565 260.8699467 177.6105558 270.3063623 183.875 279.75 C185.0977709 281.58990253 186.32075482 283.4296635 187.54394531 285.26928711 C189.35670338 287.99579646 191.16923372 290.7224546 192.98071289 293.44981384 C196.43263264 298.64662379 199.89353444 303.83722525 203.3671875 309.01953125 C204.13168619 310.1611241 204.89617251 311.30272523 205.66064453 312.44433594 C207.01676356 314.46821445 208.37442111 316.49106322 209.73388672 318.51269531 C210.60037842 319.80771973 210.60037842 319.80771973 211.484375 321.12890625 C211.97647461 321.86181885 212.46857422 322.59473145 212.97558594 323.34985352 C214 325 214 325 214 326 C204.89141796 326.58357809 195.78938598 327.02537241 186.66609192 327.2953043 C182.42686555 327.4250084 178.20053708 327.60001299 173.96875 327.88598633 C146.7882389 329.67471956 146.7882389 329.67471956 138.95996094 323.66693115 C133.84779091 317.87176604 130.59913382 311.37446241 127.54844666 304.32582092 C124.92852744 298.69864474 121.43873698 293.651671 118 288.5 C116.67184789 286.43351231 115.34716082 284.36478976 114.02734375 282.29296875 C113.36847168 281.26349121 112.70959961 280.23401367 112.03076172 279.17333984 C109.9382309 275.90347743 107.84603558 272.63340055 105.75390625 269.36328125 C105.05652344 268.27345947 104.35914063 267.1836377 103.640625 266.06079102 C102.27418018 263.92491833 100.90827891 261.78869778 99.54296875 259.65209961 C96.71001372 255.22098533 93.87283901 250.79346647 90.99609375 246.390625 C90.56546631 245.72957764 90.13483887 245.06853027 89.69116211 244.38745117 C88.59987956 242.7155231 87.50332769 241.04703743 86.40625 239.37890625 C85 237 85 237 85 235 C83.20246564 236.48491969 81.47369852 238.00133078 79.77197266 239.59716797 C77.67550984 241.41444708 75.82156678 242.76930914 73.50976562 244.22851562 C67.72713529 248.31371374 63.75065157 252.53288308 62.21734619 259.6149292 C60.95001764 269.46606141 61.33824304 279.50617012 61.57513428 289.41064453 C61.67345272 294.26952496 61.6659512 299.12931726 61.67672729 303.98902893 C61.70458603 311.32980605 61.8645182 318.65688626 62 326 C41.54 326 21.08 326 0 326 C0 218.42 0 110.84 0 0 Z " fill="#FFFFFF" transform="translate(1698,387)"/>
<path d="M0 0 C0.969375 0.43957031 1.93875 0.87914062 2.9375 1.33203125 C19.93701078 9.71105148 31.74206911 25.25314697 38 42.8046875 C40.72829535 51.4355449 41.15170563 59.58639175 41.17358398 68.5847168 C41.180271 69.73379517 41.18695801 70.88287354 41.19384766 72.06677246 C41.2078673 74.55700828 41.21977109 77.04725672 41.22979546 79.53751183 C41.24629028 83.4963864 41.26933493 87.45519186 41.29469299 91.41401672 C41.36552493 102.6689463 41.42526123 113.92392125 41.47680664 125.17895508 C41.50538392 131.40266661 41.54091486 137.62630286 41.58346039 143.84993488 C41.60554811 147.13017995 41.6230365 150.4103452 41.63390923 153.69064903 C41.26795492 185.88368787 41.26795492 185.88368787 49.62890625 216.66796875 C51 220 51 220 51 224 C30.21 224 9.42 224 -12 224 C-16.5 215 -16.5 215 -17.75 210 C-17.99234375 209.05125 -18.2346875 208.1025 -18.484375 207.125 C-18.65453125 206.42375 -18.8246875 205.7225 -19 205 C-19.44988281 205.49628906 -19.89976562 205.99257813 -20.36328125 206.50390625 C-32.97485204 219.82314033 -51.00574846 228.2520269 -69.3671875 229.16796875 C-93.90990977 229.30462088 -117.15926193 224.69477471 -135.27734375 206.81640625 C-149.48394264 192.12062749 -155.06501989 176.17938846 -155 156 C-154.29470613 137.14008472 -147.53132032 120.44639445 -133.7890625 107.34765625 C-122.43343 97.78920368 -108.80894576 92.11350523 -94.625 88.25 C-93.90747559 88.05124268 -93.18995117 87.85248535 -92.45068359 87.64770508 C-76.4569003 83.55182183 -60.38378399 83.7459363 -44 83.875 C-41.7604207 83.88505605 -39.52083699 83.89417723 -37.28125 83.90234375 C-31.85406885 83.92413492 -26.42705569 83.9574019 -21 84 C-21.13620529 80.46453682 -21.2820992 76.9295361 -21.4296875 73.39453125 C-21.46795654 72.39812622 -21.50622559 71.40172119 -21.5456543 70.37512207 C-22.02144749 59.22631751 -23.44140343 49.9075716 -32 42 C-42.54897348 35.30884535 -53.97913333 34.67108331 -66.12890625 36.4609375 C-72.8539297 38.25006737 -78.63359493 41.48571187 -82.5703125 47.33203125 C-85.56449702 52.90121446 -86.16886831 56.3509465 -87 63 C-107.79 63 -128.58 63 -150 63 C-147.371494 41.97195198 -141.4899328 25.66596877 -125 12 C-90.46432597 -13.53389434 -38.78832259 -18.50837027 0 0 Z M-82.7734375 130.6796875 C-89.44299942 137.68694876 -93.11673778 146.26073338 -93 156 C-92.44788236 163.42422025 -90.12876194 169.52653512 -85 175 C-74.25027518 182.95780562 -62.83597745 183.45080667 -49.875 181.5390625 C-39.01743816 178.5810729 -28.56468214 171.28163649 -22.0877533 162.09272766 C-20.11851517 158.30411207 -20.38628928 154.53097993 -20.51171875 150.34765625 C-20.51879349 149.44752304 -20.52586823 148.54738983 -20.53315735 147.61997986 C-20.56097519 144.76661354 -20.62368783 141.9152654 -20.6875 139.0625 C-20.71259927 137.11916912 -20.73540958 135.17580724 -20.75585938 133.23242188 C-20.81076026 128.48751274 -20.89694327 123.74409761 -21 119 C-53.96902411 117.21984576 -53.96902411 117.21984576 -82.7734375 130.6796875 Z " fill="#FFFFFF" transform="translate(1497,489)"/>
<path d="M0 0 C83.49 0 166.98 0 253 0 C253 16.5 253 33 253 50 C221.65 50 190.3 50 158 50 C158 135.47 158 220.94 158 309 C136.88 309 115.76 309 94 309 C94 223.53 94 138.06 94 50 C62.98 50 31.96 50 0 50 C0 33.5 0 17 0 0 Z " fill="#FFFFFF" transform="translate(1103,404)"/>
<path d="M0 0 C20.46 0 40.92 0 62 0 C62 107.58 62 215.16 62 326 C41.54 326 21.08 326 0 326 C0 218.42 0 110.84 0 0 Z " fill="#FFFFFF" transform="translate(1589,387)"/>
</svg>
